<?xml version="1.0" standalone="no"?>
<!DOCTYPE svg PUBLIC "-//W3C//DTD SVG 20010904//EN"
 "http://www.w3.org/TR/2001/REC-SVG-20010904/DTD/svg10.dtd">
<svg version="1.0" xmlns="http://www.w3.org/2000/svg"
 width="1200.000000pt" height="1200.000000pt" viewBox="0 0 1200.000000 1200.000000"
 preserveAspectRatio="xMidYMid meet">
<metadata>
Created by potrace 1.14, written by Peter Selinger 2001-2017
</metadata>
<g transform="translate(0.000000,1200.000000) scale(0.100000,-0.100000)"
fill="#000000" stroke="none">
<path d="M5579 11996 c-2 -2 -38 -7 -79 -10 -41 -4 -86 -9 -100 -10 -14 -2
-59 -7 -100 -11 -41 -4 -116 -16 -165 -26 -50 -10 -108 -21 -130 -24 -22 -3
-63 -10 -91 -16 -28 -5 -64 -12 -80 -15 -16 -3 -49 -10 -74 -16 -25 -5 -58
-12 -74 -15 -128 -21 -616 -164 -766 -223 -25 -10 -94 -37 -155 -60 -60 -24
-147 -60 -193 -82 -45 -21 -85 -38 -87 -38 -14 0 -356 -177 -465 -240 -69 -40
-134 -78 -145 -84 -149 -85 -555 -373 -700 -497 -304 -261 -522 -474 -705
-689 -30 -36 -57 -67 -61 -70 -3 -3 -35 -41 -70 -85 -432 -528 -790 -1172
-1010 -1810 -42 -124 -117 -365 -123 -400 -2 -11 -11 -45 -20 -75 -8 -30 -17
-66 -20 -80 -2 -14 -12 -55 -20 -92 -9 -37 -23 -103 -31 -145 -8 -43 -17 -89
-20 -103 -3 -14 -7 -40 -10 -59 -2 -18 -6 -41 -9 -50 -3 -9 -7 -43 -11 -76 -3
-33 -8 -67 -10 -75 -2 -8 -6 -37 -9 -65 -8 -71 -16 -144 -21 -185 -26 -216
-26 -1006 -1 -1150 3 -14 7 -51 10 -82 3 -32 10 -83 15 -115 6 -32 13 -74 16
-93 59 -373 141 -713 245 -1015 22 -66 43 -127 45 -135 16 -65 156 -391 255
-595 225 -462 554 -956 880 -1319 171 -191 334 -354 530 -531 77 -69 251 -211
355 -289 55 -42 105 -79 110 -84 25 -20 219 -150 304 -204 222 -140 529 -305
746 -400 49 -22 104 -46 120 -53 179 -83 690 -252 905 -300 133 -29 405 -84
445 -89 28 -4 59 -9 70 -11 42 -9 239 -33 327 -41 35 -3 79 -7 98 -9 71 -8
329 -18 470 -18 147 0 454 11 487 17 10 2 56 7 102 11 47 4 92 8 100 10 9 1
43 6 76 9 33 4 71 9 85 11 14 2 43 7 65 10 48 7 91 14 125 20 14 3 39 7 55 10
17 3 41 7 55 10 14 3 39 8 55 11 221 39 744 190 900 259 17 7 41 16 55 20 101
30 576 252 760 356 262 147 652 409 816 548 17 14 53 44 80 66 218 178 488
440 689 670 39 44 72 82 75 85 3 3 23 28 45 55 21 28 42 52 45 55 27 25 218
287 308 422 84 126 232 363 232 373 0 2 14 28 31 57 94 158 272 542 359 773
58 152 149 427 165 495 2 8 15 60 30 115 40 153 91 391 110 515 8 59 18 116
21 134 2 10 6 44 10 75 3 31 8 65 10 76 2 10 6 49 9 85 3 36 8 79 10 96 2 17
7 79 10 137 3 59 13 123 21 142 22 54 28 101 29 227 0 101 -3 119 -20 138 -15
16 -20 38 -21 93 -3 113 -16 290 -30 422 -2 22 -6 63 -9 90 -3 28 -8 65 -11
83 -3 17 -7 49 -10 70 -4 32 -18 119 -39 237 -18 98 -60 286 -86 385 -17 63
-32 122 -34 130 -8 36 -59 195 -101 320 -207 604 -547 1233 -929 1716 -22 28
-51 66 -65 84 -14 18 -30 38 -35 44 -6 6 -64 74 -130 151 -169 197 -436 461
-635 625 -41 34 -93 77 -116 96 -23 18 -77 61 -120 93 -43 33 -83 64 -89 69
-5 4 -32 23 -60 42 -27 18 -52 36 -55 39 -6 7 -146 100 -245 163 -238 151
-612 344 -900 463 -258 107 -720 254 -940 299 -11 3 -40 9 -65 15 -25 5 -58
12 -75 15 -16 3 -41 8 -55 11 -22 5 -162 29 -231 41 -15 2 -47 6 -70 9 -24 3
-55 7 -69 10 -14 2 -54 7 -90 10 -36 3 -76 8 -90 10 -14 2 -65 7 -115 10 -49
3 -119 8 -155 11 -81 7 -560 7 -655 0 -47 -4 -65 -2 -55 4 8 5 10 10 4 10 -6
0 -13 -2 -15 -4z"/>
</g>
</svg>
